<svg xmlns="http://www.w3.org/2000/svg" xmlns:xlink="http://www.w3.org/1999/xlink" xmlns:lucid="lucid" width="1180" height="1640"><g transform="translate(-380 340)" lucid:page-tab-id="0_0"><path d="M680 626a6 6 0 0 1 6-6h148a6 6 0 0 1 6 6v108a6 6 0 0 1-6 6H686a6 6 0 0 1-6-6z" stroke="#ef9c49" stroke-width="2" fill="#fffada"/><use xlink:href="#a" transform="matrix(1,0,0,1,692,632) translate(22.413580246913583 38.77777777777778)"/><use xlink:href="#b" transform="matrix(1,0,0,1,692,632) translate(101.24074074074073 38.77777777777778)"/><use xlink:href="#c" transform="matrix(1,0,0,1,692,632) translate(21.20987654320988 65.44444444444446)"/><path d="M761 618h-2v-37.2h2zm0-58.8h-2v-19.7h2z" stroke="#e45e2d" stroke-width=".05" fill="#e45e2d"/><path d="M761 619h-2v-1.03h2z" fill="#e45e2d"/><path d="M761.02 619.02H759v-1.07H761zm-2-1.02v.98H761V618z" stroke="#e45e2d" stroke-width=".05" fill="#e45e2d"/><path d="M764.63 538.5h-9.26l4.63-14.26z" fill="#e45e2d"/><path d="M766 539.5h-12l6-18.5zm-9.26-2h6.52L760 527.47z" stroke="#e45e2d" stroke-width=".05" fill="#e45e2d"/><use xlink:href="#d" transform="matrix(1,0,0,1,714.575,559.2000013965518) translate(0 14.4)"/><use xlink:href="#e" transform="matrix(1,0,0,1,714.575,559.2000013965518) translate(75.85000000000001 14.4)"/><path d="M680 1145.92a6.8 6.8 0 0 1 5.95-6.74l148.1-18.44A5.3 5.3 0 0 1 840 1126v108a6 6 0 0 1-6 6H686a6 6 0 0 1-6-6z" stroke="#ef9c49" stroke-width="2" fill="#fffada"/><use xlink:href="#f" transform="matrix(1,0,0,1,685,1145) translate(37.099999999999994 36.9)"/><use xlink:href="#g" transform="matrix(1,0,0,1,685,1145) translate(28.549999999999997 58.5)"/><path d="M710.45 885.8A7.8 7.8 0 0 1 718 880h116a4.6 4.6 0 0 1 4.45 5.8l-28.9 108.4a7.8 7.8 0 0 1-7.55 5.8H686a4.6 4.6 0 0 1-4.45-5.8z" stroke="#ef9c49" stroke-width="2" fill="#fffada"/><use xlink:href="#h" transform="matrix(1,0,0,1,685,885) translate(25.554999999999993 59.0875)"/><use xlink:href="#i" transform="matrix(1,0,0,1,685,885) translate(81.505 59.0875)"/><path d="M761 1127.95h-2v-59.82h2zm0-81.42h-2v-27.03h2z" stroke="#e45e2d" stroke-width=".05" fill="#e45e2d"/><path d="M761 1128.83l-2 .25v-1.15h2z" fill="#e45e2d"/><path d="M761.02 1128.85l-2.04.26v-1.2H761zm-2-.9v1.1l1.96-.24v-.85z" stroke="#e45e2d" stroke-width=".05" fill="#e45e2d"/><path d="M764.63 1018.5h-9.26l4.63-14.26z" fill="#e45e2d"/><path d="M766 1019.5h-12l6-18.5zm-9.26-2h6.52l-3.26-10.03z" stroke="#e45e2d" stroke-width=".05" fill="#e45e2d"/><use xlink:href="#j" transform="matrix(1,0,0,1,726.5249999999535,1046.5333333333367) translate(0 14.4)"/><path d="M761 878h-2v-57.2h2zm0-78.8h-2v-39.7h2z" stroke="#e45e2d" stroke-width=".05" fill="#e45e2d"/><path d="M761 879h-2v-1.03h2z" fill="#e45e2d"/><path d="M761.02 879.02H759v-1.07H761zm-2-1.02v.98H761V878z" stroke="#e45e2d" stroke-width=".05" fill="#e45e2d"/><path d="M764.63 758.5h-9.26l4.63-14.26z" fill="#e45e2d"/><path d="M766 759.5h-12l6-18.5zm-9.26-2h6.52L760 747.47z" stroke="#e45e2d" stroke-width=".05" fill="#e45e2d"/><use xlink:href="#k" transform="matrix(1,0,0,1,733.025,799.1999986034484) translate(0 14.4)"/><use xlink:href="#l" transform="matrix(1,0,0,1,733.025,799.1999986034484) translate(25 14.4)"/><path d="M1000 886a6 6 0 0 1 6-6h148a6 6 0 0 1 6 6v108a6 6 0 0 1-6 6h-148a6 6 0 0 1-6-6z" stroke="#ef9c49" stroke-width="2" fill="#fffada"/><path d="M1016 880v120m128-120v120" stroke="#ef9c49" stroke-width="2" fill="none"/><use xlink:href="#m" transform="matrix(1,0,0,1,1025,885) translate(5.049999999999997 58.6)"/><use xlink:href="#n" transform="matrix(1,0,0,1,1025,885) translate(62 58.6)"/><path d="M855.17 941h-29.13v-2h29.13zm125.33 0h-58.38v-2h58.38z" stroke="#e45e2d" stroke-width=".05" fill="#e45e2d"/><path d="M826.06 941h-1.3l.54-2h.76z" fill="#e45e2d"/><path d="M826.1 941.02h-1.36l.54-2.04h.8zm-.78-2l-.52 1.96h1.24V939z" stroke="#e45e2d" stroke-width=".05" fill="#e45e2d"/><path d="M995.76 940l-14.26 4.63v-9.26z" fill="#e45e2d"/><path d="M999 940l-18.5 6v-12zm-16.5 3.26l10.03-3.26-10.03-3.26z" stroke="#e45e2d" stroke-width=".05" fill="#e45e2d"/><use xlink:href="#o" transform="matrix(1,0,0,1,855.1714748027994,929.2) translate(0 14.4)"/><path d="M710.45 405.8A7.8 7.8 0 0 1 718 400h116a4.6 4.6 0 0 1 4.45 5.8l-28.9 108.4A7.8 7.8 0 0 1 802 520H686a4.6 4.6 0 0 1-4.45-5.8z" stroke="#ef9c49" stroke-width="2" fill="#fffada"/><use xlink:href="#p" transform="matrix(1,0,0,1,685,405) translate(16.354999999999997 59.0875)"/><use xlink:href="#q" transform="matrix(1,0,0,1,685,405) translate(66.705 59.0875)"/><path d="M560 366a6 6 0 0 1 6-6h628a6 6 0 0 1 6 6v908a6 6 0 0 1-6 6H566a6 6 0 0 1-6-6z" stroke="#ef9c49" stroke-width="2" fill-opacity="0"/><path d="M680 106a6 6 0 0 1 6-6h132a6 6 0 0 1 6 6v96c-24.05-17.03-39.02-17.03-48.1-17.03-14.4 0-33.55 17.03-47.95 17.03-8.93 0-24.05 0-47.95-17.03z" stroke="#ef9c49" stroke-width="2" fill="#fffada"/><path d="M688 115a6 6 0 0 1 6-6h132a6 6 0 0 1 6 6v96c-24.05-17.03-39.02-17.03-48.1-17.03-14.4 0-33.55 17.03-47.95 17.03-8.93 0-24.05 0-47.95-17.03z" stroke="#ef9c49" stroke-width="2" fill="#fffada"/><path d="M696 124a6 6 0 0 1 6-6h132a6 6 0 0 1 6 6v96c-24.05-17.03-39.02-17.03-48.1-17.03-14.4 0-33.55 17.03-47.95 17.03-8.93 0-24.05 0-47.95-17.03z" stroke="#ef9c49" stroke-width="2" fill="#fffada"/><use xlink:href="#r" transform="matrix(1,0,0,1,701,123) translate(1.124999999999993 40.18125)"/><use xlink:href="#s" transform="matrix(1,0,0,1,701,123) translate(37.074999999999996 40.18125)"/><path d="M400 106a6 6 0 0 1 6-6h148a6 6 0 0 1 6 6v108a6 6 0 0 1-6 6H406a6 6 0 0 1-6-6z" stroke="#ef9c49" stroke-width="2" fill="#fffada"/><path d="M416 100v120m128-120v120" stroke="#ef9c49" stroke-width="2" fill="none"/><use xlink:href="#t" transform="matrix(1,0,0,1,425,105) translate(21.325000000000003 47.8)"/><use xlink:href="#u" transform="matrix(1,0,0,1,425,105) translate(15.100000000000001 69.4)"/><path d="M680-134a6 6 0 0 1 6-6h148a6 6 0 0 1 6 6v108a6 6 0 0 1-6 6H686a6 6 0 0 1-6-6z" stroke="#ef9c49" stroke-width="2" fill="#fffada"/><use xlink:href="#v" transform="matrix(1,0,0,1,692,-128) translate(25.549999999999997 41.4)"/><use xlink:href="#w" transform="matrix(1,0,0,1,692,-128) translate(79.5 41.4)"/><use xlink:href="#x" transform="matrix(1,0,0,1,692,-128) translate(30.099999999999994 63)"/><path d="M1040-134a6 6 0 0 1 6-6h148a6 6 0 0 1 6 6v108a6 6 0 0 1-6 6h-148a6 6 0 0 1-6-6z" stroke="#ef9c49" stroke-width="2" fill="#fffada"/><path d="M1056-140v120m128-120v120" stroke="#ef9c49" stroke-width="2" fill="none"/><use xlink:href="#m" transform="matrix(1,0,0,1,1065,-135) translate(5.049999999999997 58.6)"/><use xlink:href="#n" transform="matrix(1,0,0,1,1065,-135) translate(62 58.6)"/><path d="M887.8-79h-28.3v-2h28.3zm150.2 0h-24.46v-2H1038z" stroke="#e45e2d" stroke-width=".05" fill="#e45e2d"/><path d="M858.5-75.36L844.24-80l14.26-4.64z" fill="#e45e2d"/><path d="M859.5-74L841-80l18.5-6zm-12.03-6l10.03 3.26v-6.52z" stroke="#e45e2d" stroke-width=".05" fill="#e45e2d"/><path d="M1039-79h-1.03v-2h1.03z" fill="#e45e2d"/><path d="M1039.03-78.97h-1.08v-2.06h1.08zm-1.03-2v1.94h.97v-1.94z" stroke="#e45e2d" stroke-width=".05" fill="#e45e2d"/><use xlink:href="#y" transform="matrix(1,0,0,1,887.7916666666667,-90.8) translate(0 14.4)"/><use xlink:href="#z" transform="matrix(1,0,0,1,887.7916666666667,-90.8) translate(51.95 14.4)"/><path d="M760 398V234.53" stroke="#e45e2d" stroke-width="2" fill="none"/><path d="M761 399h-2v-1.03h2z" stroke="#e45e2d" stroke-width=".05" fill="#e45e2d"/><path d="M760 219.27l4.63 14.26h-9.26z" stroke="#e45e2d" stroke-width="2" fill="#e45e2d"/><path d="M760 98V-.5" stroke="#e45e2d" stroke-width="2" fill="none"/><path d="M761 99h-2v-1.03h2z" stroke="#e45e2d" stroke-width=".05" fill="#e45e2d"/><path d="M760-15.76l4.63 14.26h-9.26z" stroke="#e45e2d" stroke-width="2" fill="#e45e2d"/><path d="M562 160h98.5" stroke="#e45e2d" stroke-width="2" fill="none"/><path d="M562.03 161H561v-2h1.03z" stroke="#e45e2d" stroke-width=".05" fill="#e45e2d"/><path d="M675.76 160l-14.26 4.63v-9.26z" stroke="#e45e2d" stroke-width="2" fill="#e45e2d"/><path d="M1380 106a6 6 0 0 1 6-6h148a6 6 0 0 1 6 6v108a6 6 0 0 1-6 6h-148a6 6 0 0 1-6-6z" stroke="#ef9c49" stroke-width="2" fill="#fffada"/><path d="M1396 100v120m128-120v120" stroke="#ef9c49" stroke-width="2" fill="none"/><use xlink:href="#m" transform="matrix(1,0,0,1,1405,105) translate(5.049999999999997 58.6)"/><use xlink:href="#n" transform="matrix(1,0,0,1,1405,105) translate(62 58.6)"/><path d="M808-320c17.67 0 32 17.9 32 40s-14.33 40-32 40h-96c-17.67 0-32-17.9-32-40s14.33-40 32-40z" stroke="#ef9c49" stroke-width="2" fill="#fffada"/><g><use xlink:href="#A" transform="matrix(1,0,0,1,685,-315) translate(45.55 38.4625)"/></g><path d="M760-142v-78.5" stroke="#e45e2d" stroke-width="2" fill="none"/><path d="M761-141h-2v-1.03h2z" stroke="#e45e2d" stroke-width=".05" fill="#e45e2d"/><path d="M760-235.76l4.63 14.26h-9.26z" stroke="#e45e2d" stroke-width="2" fill="#e45e2d"/><path d="M1040 125.92a6.8 6.8 0 0 1 5.95-6.74l148.1-18.44A5.3 5.3 0 0 1 1200 106v108a6 6 0 0 1-6 6h-148a6 6 0 0 1-6-6z" stroke="#ef9c49" stroke-width="2" fill="#fffada"/><g><use xlink:href="#r" transform="matrix(1,0,0,1,1045,125) translate(19.124999999999993 36.9)"/><use xlink:href="#B" transform="matrix(1,0,0,1,1045,125) translate(55.074999999999996 36.9)"/><use xlink:href="#C" transform="matrix(1,0,0,1,1045,125) translate(42.525 58.5)"/></g><path d="M1219.5 160.17h141" stroke="#e45e2d" stroke-width="2" fill="none"/><path d="M1204.24 160.17l14.26-4.64v9.27zM1375.76 160.17l-14.26 4.63v-9.27z" stroke="#e45e2d" stroke-width="2" fill="#e45e2d"/><path d="M1038 160.17H859.5" stroke="#e45e2d" stroke-width="2" fill="none"/><path d="M1039 161.17h-1.03v-2h1.03z" stroke="#e45e2d" stroke-width=".05" fill="#e45e2d"/><path d="M844.24 160.17l14.26-4.64v9.27z" stroke="#e45e2d" stroke-width="2" fill="#e45e2d"/><defs><path fill="#8b412b" d="M205 0l-28-72H64L36 0H1l101-248h38L239 0h-34zm-38-99l-47-123c-12 45-31 82-46 123h93" id="D"/><path fill="#8b412b" d="M190 0L58-211 59 0H30v-248h39L202-35l-2-213h31V0h-41" id="E"/><path fill="#8b412b" d="M127-220V0H93v-220H8v-28h204v28h-85" id="F"/><path fill="#8b412b" d="M30 0v-248h33v221h125V0H30" id="G"/><path fill="#8b412b" d="M233-177c-1 41-23 64-60 70L243 0h-38l-65-103H63V0H30v-248c88 3 205-21 203 71zM63-129c60-2 137 13 137-47 0-61-80-42-137-45v92" id="H"/><g id="a"><use transform="matrix(0.06172839506172839,0,0,0.06172839506172839,0,0)" xlink:href="#D"/><use transform="matrix(0.06172839506172839,0,0,0.06172839506172839,14.814814814814813,0)" xlink:href="#E"/><use transform="matrix(0.06172839506172839,0,0,0.06172839506172839,30.80246913580247,0)" xlink:href="#F"/><use transform="matrix(0.06172839506172839,0,0,0.06172839506172839,44.32098765432099,0)" xlink:href="#G"/><use transform="matrix(0.06172839506172839,0,0,0.06172839506172839,56.666666666666664,0)" xlink:href="#H"/></g><path fill="#8b412b" d="M155-56V0h-30v-56H8v-25l114-167h33v167h35v25h-35zm-30-156c-27 46-58 90-88 131h88v-131" id="I"/><use transform="matrix(0.06172839506172839,0,0,0.06172839506172839,0,0)" xlink:href="#I" id="b"/><path fill="#8b412b" d="M143 4C61 4 22-44 18-125c-5-107 100-154 193-111 17 8 29 25 37 43l-32 9c-13-25-37-40-76-40-61 0-88 39-88 99 0 61 29 100 91 101 35 0 62-11 79-27v-45h-74v-28h105v86C228-13 192 4 143 4" id="J"/><path fill="#8b412b" d="M114-163C36-179 61-72 57 0H25l-1-190h30c1 12-1 29 2 39 6-27 23-49 58-41v29" id="K"/><path fill="#8b412b" d="M141-36C126-15 110 5 73 4 37 3 15-17 15-53c-1-64 63-63 125-63 3-35-9-54-41-54-24 1-41 7-42 31l-33-3c5-37 33-52 76-52 45 0 72 20 72 64v82c-1 20 7 32 28 27v20c-31 9-61-2-59-35zM48-53c0 20 12 33 32 33 41-3 63-29 60-74-43 2-92-5-92 41" id="L"/><path fill="#8b412b" d="M210-169c-67 3-38 105-44 169h-31v-121c0-29-5-50-35-48C34-165 62-65 56 0H25l-1-190h30c1 10-1 24 2 32 10-44 99-50 107 0 11-21 27-35 58-36 85-2 47 119 55 194h-31v-121c0-29-5-49-35-48" id="M"/><g id="c"><use transform="matrix(0.06172839506172839,0,0,0.06172839506172839,0,0)" xlink:href="#J"/><use transform="matrix(0.06172839506172839,0,0,0.06172839506172839,17.28395061728395,0)" xlink:href="#K"/><use transform="matrix(0.06172839506172839,0,0,0.06172839506172839,24.629629629629626,0)" xlink:href="#L"/><use transform="matrix(0.06172839506172839,0,0,0.06172839506172839,36.9753086419753,0)" xlink:href="#M"/><use transform="matrix(0.06172839506172839,0,0,0.06172839506172839,55.43209876543209,0)" xlink:href="#M"/><use transform="matrix(0.06172839506172839,0,0,0.06172839506172839,73.88888888888887,0)" xlink:href="#L"/><use transform="matrix(0.06172839506172839,0,0,0.06172839506172839,86.23456790123456,0)" xlink:href="#K"/></g><path fill="#8b412b" d="M96-169c-40 0-48 33-48 73s9 75 48 75c24 0 41-14 43-38l32 2c-6 37-31 61-74 61-59 0-76-41-82-99-10-93 101-131 147-64 4 7 5 14 7 22l-32 3c-4-21-16-35-41-35" id="N"/><path fill="#8b412b" d="M100-194c62-1 85 37 85 99 1 63-27 99-86 99S16-35 15-95c0-66 28-99 85-99zM99-20c44 1 53-31 53-75 0-43-8-75-51-75s-53 32-53 75 10 74 51 75" id="O"/><path fill="#8b412b" d="M115-194c55 1 70 41 70 98S169 2 115 4C84 4 66-9 55-30l1 105H24l-1-265h31l2 30c10-21 28-34 59-34zm-8 174c40 0 45-34 45-75s-6-73-45-74c-42 0-51 32-51 76 0 43 10 73 51 73" id="P"/><path fill="#8b412b" d="M24-231v-30h32v30H24zM24 0v-190h32V0H24" id="Q"/><path fill="#8b412b" d="M24 0v-261h32V0H24" id="R"/><path fill="#8b412b" d="M100-194c63 0 86 42 84 106H49c0 40 14 67 53 68 26 1 43-12 49-29l28 8c-11 28-37 45-77 45C44 4 14-33 15-96c1-61 26-98 85-98zm52 81c6-60-76-77-97-28-3 7-6 17-6 28h103" id="S"/><path fill="#8b412b" d="M135-143c-3-34-86-38-87 0 15 53 115 12 119 90S17 21 10-45l28-5c4 36 97 45 98 0-10-56-113-15-118-90-4-57 82-63 122-42 12 7 21 19 24 35" id="T"/><g id="d"><use transform="matrix(0.05,0,0,0.05,0,0)" xlink:href="#N"/><use transform="matrix(0.05,0,0,0.05,9,0)" xlink:href="#O"/><use transform="matrix(0.05,0,0,0.05,19,0)" xlink:href="#M"/><use transform="matrix(0.05,0,0,0.05,33.95,0)" xlink:href="#P"/><use transform="matrix(0.05,0,0,0.05,43.95,0)" xlink:href="#Q"/><use transform="matrix(0.05,0,0,0.05,47.900000000000006,0)" xlink:href="#R"/><use transform="matrix(0.05,0,0,0.05,51.85,0)" xlink:href="#S"/><use transform="matrix(0.05,0,0,0.05,61.85,0)" xlink:href="#T"/></g><path fill="#8b412b" d="M59-47c-2 24 18 29 38 22v24C64 9 27 4 27-40v-127H5v-23h24l9-43h21v43h35v23H59v120" id="U"/><g id="e"><use transform="matrix(0.05,0,0,0.05,0,0)" xlink:href="#U"/><use transform="matrix(0.05,0,0,0.05,5,0)" xlink:href="#O"/></g><path fill="#8b412b" d="M240 0l2-218c-23 76-54 145-80 218h-23L58-218 59 0H30v-248h44l77 211c21-75 51-140 76-211h43V0h-30" id="V"/><path fill="#8b412b" d="M106-169C34-169 62-67 57 0H25v-261h32l-1 103c12-21 28-36 61-36 89 0 53 116 60 194h-32v-121c2-32-8-49-39-48" id="W"/><path fill="#8b412b" d="M140-251c81 0 123 46 123 126C263-53 228-8 163 1c7 30 30 48 69 40v23c-55 16-95-15-103-61C56-3 17-48 17-125c0-80 42-126 123-126zm0 227c63 0 89-41 89-101s-29-99-89-99c-61 0-89 39-89 99S79-25 140-24" id="X"/><path fill="#8b412b" d="M84 4C-5 8 30-112 23-190h32v120c0 31 7 50 39 49 72-2 45-101 50-169h31l1 190h-30c-1-10 1-25-2-33-11 22-28 36-60 37" id="Y"/><g id="f"><use transform="matrix(0.05,0,0,0.05,0,0)" xlink:href="#V"/><use transform="matrix(0.05,0,0,0.05,14.950000000000001,0)" xlink:href="#L"/><use transform="matrix(0.05,0,0,0.05,24.950000000000003,0)" xlink:href="#U"/><use transform="matrix(0.05,0,0,0.05,29.950000000000003,0)" xlink:href="#W"/><use transform="matrix(0.05,0,0,0.05,39.95,0)" xlink:href="#X"/><use transform="matrix(0.05,0,0,0.05,53.95,0)" xlink:href="#Y"/><use transform="matrix(0.05,0,0,0.05,63.95,0)" xlink:href="#Q"/><use transform="matrix(0.05,0,0,0.05,67.9,0)" xlink:href="#R"/><use transform="matrix(0.05,0,0,0.05,71.85000000000001,0)" xlink:href="#R"/></g><path fill="#8b412b" d="M212-179c-10-28-35-45-73-45-59 0-87 40-87 99 0 60 29 101 89 101 43 0 62-24 78-52l27 14C228-24 195 4 139 4 59 4 22-46 18-125c-6-104 99-153 187-111 19 9 31 26 39 46" id="Z"/><path fill="#8b412b" d="M117-194c89-4 53 116 60 194h-32v-121c0-31-8-49-39-48C34-167 62-67 57 0H25l-1-190h30c1 10-1 24 2 32 11-22 29-35 61-36" id="aa"/><g id="g"><use transform="matrix(0.05,0,0,0.05,0,0)" xlink:href="#Z"/><use transform="matrix(0.05,0,0,0.05,12.950000000000001,0)" xlink:href="#O"/><use transform="matrix(0.05,0,0,0.05,22.950000000000003,0)" xlink:href="#M"/><use transform="matrix(0.05,0,0,0.05,37.900000000000006,0)" xlink:href="#P"/><use transform="matrix(0.05,0,0,0.05,47.900000000000006,0)" xlink:href="#O"/><use transform="matrix(0.05,0,0,0.05,57.900000000000006,0)" xlink:href="#aa"/><use transform="matrix(0.05,0,0,0.05,67.9,0)" xlink:href="#S"/><use transform="matrix(0.05,0,0,0.05,77.9,0)" xlink:href="#aa"/><use transform="matrix(0.05,0,0,0.05,87.9,0)" xlink:href="#U"/></g><path fill="#8b412b" d="M195 0l-74-108L45 0H8l94-129-87-119h37l69 98 67-98h37l-84 118L233 0h-38" id="ab"/><g id="h"><use transform="matrix(0.05,0,0,0.05,0,0)" xlink:href="#G"/><use transform="matrix(0.05,0,0,0.05,10,0)" xlink:href="#L"/><use transform="matrix(0.05,0,0,0.05,20,0)" xlink:href="#F"/><use transform="matrix(0.05,0,0,0.05,28.950000000000003,0)" xlink:href="#S"/><use transform="matrix(0.05,0,0,0.05,38.95,0)" xlink:href="#ab"/></g><path fill="#8b412b" d="M85-194c31 0 48 13 60 33l-1-100h32l1 261h-30c-2-10 0-23-3-31C134-8 116 4 85 4 32 4 16-35 15-94c0-66 23-100 70-100zm9 24c-40 0-46 34-46 75 0 40 6 74 45 74 42 0 51-32 51-76 0-42-9-74-50-73" id="ac"/><g id="i"><use transform="matrix(0.05,0,0,0.05,0,0)" xlink:href="#Z"/><use transform="matrix(0.05,0,0,0.05,12.950000000000001,0)" xlink:href="#O"/><use transform="matrix(0.05,0,0,0.05,22.950000000000003,0)" xlink:href="#ac"/><use transform="matrix(0.05,0,0,0.05,32.95,0)" xlink:href="#S"/></g><g id="j"><use transform="matrix(0.05,0,0,0.05,0,0)" xlink:href="#N"/><use transform="matrix(0.05,0,0,0.05,9,0)" xlink:href="#O"/><use transform="matrix(0.05,0,0,0.05,19,0)" xlink:href="#aa"/><use transform="matrix(0.05,0,0,0.05,29,0)" xlink:href="#U"/><use transform="matrix(0.05,0,0,0.05,34,0)" xlink:href="#L"/><use transform="matrix(0.05,0,0,0.05,44,0)" xlink:href="#Q"/><use transform="matrix(0.05,0,0,0.05,47.95,0)" xlink:href="#aa"/><use transform="matrix(0.05,0,0,0.05,57.95,0)" xlink:href="#T"/></g><g id="k"><use transform="matrix(0.05,0,0,0.05,0,0)" xlink:href="#O"/><use transform="matrix(0.05,0,0,0.05,10,0)" xlink:href="#aa"/></g><g id="l"><use transform="matrix(0.05,0,0,0.05,0,0)" xlink:href="#P"/><use transform="matrix(0.05,0,0,0.05,10,0)" xlink:href="#R"/><use transform="matrix(0.05,0,0,0.05,13.949999999999998,0)" xlink:href="#O"/><use transform="matrix(0.05,0,0,0.05,23.95,0)" xlink:href="#U"/></g><path fill="#8b412b" d="M141 0L90-78 38 0H4l68-98-65-92h35l48 74 47-74h35l-64 92 68 98h-35" id="ad"/><g id="m"><use transform="matrix(0.05,0,0,0.05,0,0)" xlink:href="#H"/><use transform="matrix(0.05,0,0,0.05,12.950000000000001,0)" xlink:href="#S"/><use transform="matrix(0.05,0,0,0.05,22.950000000000003,0)" xlink:href="#ac"/><use transform="matrix(0.05,0,0,0.05,32.95,0)" xlink:href="#Y"/><use transform="matrix(0.05,0,0,0.05,42.95,0)" xlink:href="#ad"/></g><path fill="#8b412b" d="M185-189c-5-48-123-54-124 2 14 75 158 14 163 119 3 78-121 87-175 55-17-10-28-26-33-46l33-7c5 56 141 63 141-1 0-78-155-14-162-118-5-82 145-84 179-34 5 7 8 16 11 25" id="ae"/><g id="n"><use transform="matrix(0.05,0,0,0.05,0,0)" xlink:href="#ae"/><use transform="matrix(0.05,0,0,0.05,12,0)" xlink:href="#U"/><use transform="matrix(0.05,0,0,0.05,17,0)" xlink:href="#O"/><use transform="matrix(0.05,0,0,0.05,27,0)" xlink:href="#K"/><use transform="matrix(0.05,0,0,0.05,32.95,0)" xlink:href="#S"/></g><g id="o"><use transform="matrix(0.05,0,0,0.05,0,0)" xlink:href="#ac"/><use transform="matrix(0.05,0,0,0.05,10,0)" xlink:href="#Q"/><use transform="matrix(0.05,0,0,0.05,13.949999999999998,0)" xlink:href="#T"/><use transform="matrix(0.05,0,0,0.05,22.95,0)" xlink:href="#P"/><use transform="matrix(0.05,0,0,0.05,32.95,0)" xlink:href="#L"/><use transform="matrix(0.05,0,0,0.05,42.95,0)" xlink:href="#U"/><use transform="matrix(0.05,0,0,0.05,47.95,0)" xlink:href="#N"/><use transform="matrix(0.05,0,0,0.05,56.95,0)" xlink:href="#W"/></g><g id="p"><use transform="matrix(0.05,0,0,0.05,0,0)" xlink:href="#J"/><use transform="matrix(0.05,0,0,0.05,14,0)" xlink:href="#G"/><use transform="matrix(0.05,0,0,0.05,24,0)" xlink:href="#ae"/><use transform="matrix(0.05,0,0,0.05,36,0)" xlink:href="#G"/></g><g id="q"><use transform="matrix(0.05,0,0,0.05,0,0)" xlink:href="#ae"/><use transform="matrix(0.05,0,0,0.05,12,0)" xlink:href="#W"/><use transform="matrix(0.05,0,0,0.05,22,0)" xlink:href="#L"/><use transform="matrix(0.05,0,0,0.05,32,0)" xlink:href="#ac"/><use transform="matrix(0.05,0,0,0.05,42,0)" xlink:href="#S"/><use transform="matrix(0.05,0,0,0.05,52,0)" xlink:href="#K"/><use transform="matrix(0.05,0,0,0.05,57.95,0)" xlink:href="#T"/></g><path fill="#8b412b" d="M30-248c87 1 191-15 191 75 0 78-77 80-158 76V0H30v-248zm33 125c57 0 124 11 124-50 0-59-68-47-124-48v98" id="af"/><g id="r"><use transform="matrix(0.05,0,0,0.05,0,0)" xlink:href="#af"/><use transform="matrix(0.05,0,0,0.05,12,0)" xlink:href="#R"/><use transform="matrix(0.05,0,0,0.05,15.949999999999998,0)" xlink:href="#O"/><use transform="matrix(0.05,0,0,0.05,25.950000000000003,0)" xlink:href="#U"/></g><path fill="#8b412b" d="M177-190C167-65 218 103 67 71c-23-6-38-20-44-43l32-5c15 47 100 32 89-28v-30C133-14 115 1 83 1 29 1 15-40 15-95c0-56 16-97 71-98 29-1 48 16 59 35 1-10 0-23 2-32h30zM94-22c36 0 50-32 50-73 0-42-14-75-50-75-39 0-46 34-46 75s6 73 46 73" id="ag"/><g id="s"><use transform="matrix(0.05,0,0,0.05,0,0)" xlink:href="#D"/><use transform="matrix(0.05,0,0,0.05,12,0)" xlink:href="#R"/><use transform="matrix(0.05,0,0,0.05,15.949999999999998,0)" xlink:href="#ag"/><use transform="matrix(0.05,0,0,0.05,25.950000000000003,0)" xlink:href="#O"/><use transform="matrix(0.05,0,0,0.05,35.95,0)" xlink:href="#K"/><use transform="matrix(0.05,0,0,0.05,41.900000000000006,0)" xlink:href="#Q"/><use transform="matrix(0.05,0,0,0.05,45.85000000000001,0)" xlink:href="#U"/><use transform="matrix(0.05,0,0,0.05,50.85000000000001,0)" xlink:href="#W"/><use transform="matrix(0.05,0,0,0.05,60.85,0)" xlink:href="#M"/><use transform="matrix(0.05,0,0,0.05,75.80000000000001,0)" xlink:href="#T"/></g><path fill="#8b412b" d="M140-251c81 0 123 46 123 126C263-46 219 4 140 4 59 4 17-45 17-125s42-126 123-126zm0 227c63 0 89-41 89-101s-29-99-89-99c-61 0-89 39-89 99S79-25 140-24" id="ah"/><g id="t"><use transform="matrix(0.05,0,0,0.05,0,0)" xlink:href="#ah"/><use transform="matrix(0.05,0,0,0.05,14,0)" xlink:href="#P"/><use transform="matrix(0.05,0,0,0.05,24,0)" xlink:href="#S"/><use transform="matrix(0.05,0,0,0.05,34,0)" xlink:href="#aa"/><use transform="matrix(0.05,0,0,0.05,44,0)" xlink:href="#J"/><use transform="matrix(0.05,0,0,0.05,58,0)" xlink:href="#G"/></g><path fill="#8b412b" d="M87 75C49 33 22-17 22-94c0-76 28-126 65-167h31c-38 41-64 92-64 168S80 34 118 75H87" id="ai"/><path fill="#8b412b" d="M153-248C145-148 188 4 80 4 36 3 13-21 6-62l32-5c4 25 16 42 43 43 27 0 39-20 39-49v-147H72v-28h81" id="aj"/><path fill="#8b412b" d="M33-261c38 41 65 92 65 168S71 34 33 75H2C39 34 66-17 66-93S39-220 2-261h31" id="ak"/><g id="u"><use transform="matrix(0.05,0,0,0.05,0,0)" xlink:href="#ai"/><use transform="matrix(0.05,0,0,0.05,5.95,0)" xlink:href="#F"/><use transform="matrix(0.05,0,0,0.05,16.900000000000002,0)" xlink:href="#W"/><use transform="matrix(0.05,0,0,0.05,26.900000000000002,0)" xlink:href="#K"/><use transform="matrix(0.05,0,0,0.05,32.85,0)" xlink:href="#S"/><use transform="matrix(0.05,0,0,0.05,42.85,0)" xlink:href="#S"/><use transform="matrix(0.05,0,0,0.05,52.85,0)" xlink:href="#aj"/><use transform="matrix(0.05,0,0,0.05,61.85,0)" xlink:href="#ae"/><use transform="matrix(0.05,0,0,0.05,73.85,0)" xlink:href="#ak"/></g><path fill="#8b412b" d="M108 0H70L1-190h34L89-25l56-165h34" id="al"/><g id="v"><use transform="matrix(0.05,0,0,0.05,0,0)" xlink:href="#D"/><use transform="matrix(0.05,0,0,0.05,12,0)" xlink:href="#N"/><use transform="matrix(0.05,0,0,0.05,21,0)" xlink:href="#U"/><use transform="matrix(0.05,0,0,0.05,26,0)" xlink:href="#Q"/><use transform="matrix(0.05,0,0,0.05,29.950000000000003,0)" xlink:href="#al"/><use transform="matrix(0.05,0,0,0.05,38.95,0)" xlink:href="#S"/></g><g id="w"><use transform="matrix(0.05,0,0,0.05,0,0)" xlink:href="#af"/><use transform="matrix(0.05,0,0,0.05,12,0)" xlink:href="#R"/><use transform="matrix(0.05,0,0,0.05,15.949999999999998,0)" xlink:href="#O"/><use transform="matrix(0.05,0,0,0.05,25.950000000000003,0)" xlink:href="#U"/></g><g id="x"><use transform="matrix(0.05,0,0,0.05,0,0)" xlink:href="#D"/><use transform="matrix(0.05,0,0,0.05,12,0)" xlink:href="#R"/><use transform="matrix(0.05,0,0,0.05,15.949999999999998,0)" xlink:href="#ag"/><use transform="matrix(0.05,0,0,0.05,25.950000000000003,0)" xlink:href="#O"/><use transform="matrix(0.05,0,0,0.05,35.95,0)" xlink:href="#K"/><use transform="matrix(0.05,0,0,0.05,41.900000000000006,0)" xlink:href="#Q"/><use transform="matrix(0.05,0,0,0.05,45.85000000000001,0)" xlink:href="#U"/><use transform="matrix(0.05,0,0,0.05,50.85000000000001,0)" xlink:href="#W"/><use transform="matrix(0.05,0,0,0.05,60.85,0)" xlink:href="#M"/></g><g id="y"><use transform="matrix(0.05,0,0,0.05,0,0)" xlink:href="#L"/><use transform="matrix(0.05,0,0,0.05,10,0)" xlink:href="#N"/><use transform="matrix(0.05,0,0,0.05,19,0)" xlink:href="#U"/><use transform="matrix(0.05,0,0,0.05,24,0)" xlink:href="#Q"/><use transform="matrix(0.05,0,0,0.05,27.950000000000003,0)" xlink:href="#al"/><use transform="matrix(0.05,0,0,0.05,36.95,0)" xlink:href="#S"/></g><g id="z"><use transform="matrix(0.05,0,0,0.05,0,0)" xlink:href="#L"/><use transform="matrix(0.05,0,0,0.05,10,0)" xlink:href="#R"/><use transform="matrix(0.05,0,0,0.05,13.949999999999998,0)" xlink:href="#ag"/><use transform="matrix(0.05,0,0,0.05,23.95,0)" xlink:href="#O"/><use transform="matrix(0.05,0,0,0.05,33.95,0)" xlink:href="#K"/><use transform="matrix(0.05,0,0,0.05,39.900000000000006,0)" xlink:href="#Q"/><use transform="matrix(0.05,0,0,0.05,43.85000000000001,0)" xlink:href="#U"/><use transform="matrix(0.05,0,0,0.05,48.85000000000001,0)" xlink:href="#W"/><use transform="matrix(0.05,0,0,0.05,58.85,0)" xlink:href="#M"/></g><g id="A"><use transform="matrix(0.05,0,0,0.05,0,0)" xlink:href="#H"/><use transform="matrix(0.05,0,0,0.05,12.950000000000001,0)" xlink:href="#S"/><use transform="matrix(0.05,0,0,0.05,22.950000000000003,0)" xlink:href="#aa"/><use transform="matrix(0.05,0,0,0.05,32.95,0)" xlink:href="#ac"/><use transform="matrix(0.05,0,0,0.05,42.95,0)" xlink:href="#S"/><use transform="matrix(0.05,0,0,0.05,52.95,0)" xlink:href="#K"/></g><g id="B"><use transform="matrix(0.05,0,0,0.05,0,0)" xlink:href="#D"/><use transform="matrix(0.05,0,0,0.05,12,0)" xlink:href="#R"/><use transform="matrix(0.05,0,0,0.05,15.949999999999998,0)" xlink:href="#ag"/><use transform="matrix(0.05,0,0,0.05,25.950000000000003,0)" xlink:href="#O"/><use transform="matrix(0.05,0,0,0.05,35.95,0)" xlink:href="#K"/><use transform="matrix(0.05,0,0,0.05,41.900000000000006,0)" xlink:href="#Q"/><use transform="matrix(0.05,0,0,0.05,45.85000000000001,0)" xlink:href="#U"/><use transform="matrix(0.05,0,0,0.05,50.85000000000001,0)" xlink:href="#W"/><use transform="matrix(0.05,0,0,0.05,60.85,0)" xlink:href="#M"/></g><g id="C"><use transform="matrix(0.05,0,0,0.05,0,0)" xlink:href="#ae"/><use transform="matrix(0.05,0,0,0.05,12,0)" xlink:href="#S"/><use transform="matrix(0.05,0,0,0.05,22,0)" xlink:href="#U"/><use transform="matrix(0.05,0,0,0.05,27,0)" xlink:href="#U"/><use transform="matrix(0.05,0,0,0.05,32,0)" xlink:href="#Q"/><use transform="matrix(0.05,0,0,0.05,35.95,0)" xlink:href="#aa"/><use transform="matrix(0.05,0,0,0.05,45.95,0)" xlink:href="#ag"/><use transform="matrix(0.05,0,0,0.05,55.95,0)" xlink:href="#T"/></g></defs></g></svg>